<?xml version="1.0" encoding="utf-8"?>
<!-- Generator: Adobe Illustrator 24.0.2, SVG Export Plug-In . SVG Version: 6.00 Build 0)  -->
<svg version="1.1" id="Layer_1" xmlns="http://www.w3.org/2000/svg" xmlns:xlink="http://www.w3.org/1999/xlink" x="0px" y="0px"
	 viewBox="0 0 231.9 167.5" style="enable-background:new 0 0 231.9 167.5;" xml:space="preserve">
<style type="text/css">
	.st0{fill:#0D482D;}
	.st1{fill:#2DA16A;}
	.st2{fill:#BCDACC;}
	.st3{fill:#116730;}
	.st4{fill:#A6C7BB;}
	.st5{fill:#9EC2B3;}
	.st6{fill:#27654A;}
	.st7{fill:#7BB297;}
</style>
<path class="st0" d="M123,138.7c2.2,2.3,5.1,3.7,7.8,5.4c8.4,5.1,17.1,9.7,26.1,13.6c2.8,1.2,5.6,2.3,8.4,3.6
	c-6.3,1.1-12.5,1.4-18.8,1.3c-5.9-0.1-11.9-0.6-17.8-1.3c-10.7-1.4-21.3-3.6-31.6-6.7c-7.6-2.3-15.1-4.9-22.2-8.4
	c-9.3-4.5-18.1-9.9-26.2-16.3c-3.6-2.8-7-5.8-10.3-9c-0.4-0.4-0.6-0.7-0.4-1.1c1.3-2.5,2-5.3,3.6-7.8c0.8-1.2,1.4-2.5,2-3.8
	c1.8-3.7,4-7.2,6.4-10.6c0.1-0.1,0-0.4,0-0.6c-0.3-0.6,0.1-1,0.4-1.4c2.8-4.2,5.6-8.5,8.7-12.6c2.6-3.5,5.1-7,7.8-10.4
	c0.2-0.3,0.4-0.7,0.7-1c0.6-0.6,1-1.7,2.1-1.5c1.1,0.2,1.1,1.3,1.4,2.1c2,5.4,4.5,10.6,7.2,15.6c2.4,4.6,5.2,8.9,8.2,13.2
	c2.7,4,5.7,7.8,8.8,11.5c5,5.9,10.3,11.5,16.1,16.5c3.2,2.7,6.6,5.2,10,7.7C121.8,137.5,122.6,137.9,123,138.7z"/>
<path class="st1" d="M139.3,93.2c0.5,2.1,0.8,4.3,1.7,6.2c0.9,1.8,1.2,3.8,2.1,5.6c1.6,3.2,2.7,6.7,4.3,9.9
	c2.7,5.2,5.5,10.2,8.8,15.1c2.4,3.5,5.1,6.8,7.9,10.7c-3.9-1.5-7-3.4-10.1-5.2c-6.7-3.8-13.1-7.9-19.3-12.5
	c-5.6-4.1-11.1-8.4-16.2-13.1c-0.9-0.8-1.9-1.4-2.9-2.1c-0.9-0.2-1.6-0.7-2.2-1.5c-6.1-8.7-11.5-17.8-16-27.4
	c-2.3-4.9-4.5-10-6.2-15.2c-1.6-4.7-3.2-9.4-4.5-14.2c-0.2-0.9-0.6-1.8,0.1-2.6c3.3-2.9,6.7-5.8,10.1-8.7c5-4.2,10.2-8,15.7-11.5
	c8.3-5.3,17.1-10,26.1-14c0.6-0.3,1.3-0.5,2.1-0.9c-0.7,4.5-2.6,8.7-2.6,13.2c0.2,0.3,0.4,0.7,0.2,1.1c-1,2.7-0.8,5.7-1.6,8.5
	c-0.5,0.7-0.6,1.6-0.5,2.4c-0.4,5.3-0.3,10.6-0.9,15.8c-0.5,4.7,0.5,9.3,0.2,14c-0.2,3.4,0.2,6.9,0.9,10.2c0.8,3.9,1.1,7.9,2.4,11.8
	C138.8,90.4,139.6,91.8,139.3,93.2z"/>
<path class="st2" d="M138.5,89.3c-2.5-8.9-3.7-18-3.6-27.2c0-1.8-1.1-3.3-0.6-5.1c0.9-3.8,0.5-7.8,0.8-11.7c0.2-2.8,0.5-5.6,0.7-8.5
	c0.6-0.6,0.2-1.4,0.7-2c0.4-3.3,0.6-6.6,1.7-9.7c2.4-0.4,4.4-1.8,6.4-3c7.1-4,14.7-6.8,22.3-9.6c6.2-2.3,12.5-4.2,18.9-5.8
	c2.4-0.6,4.7-1.1,7.1-1.8c0.3-0.1,0.9-0.2,1.1,0c0.4,0.4,0,0.9-0.2,1.2c-2,2.9-3,6.3-4.7,9.3c-1.5,2.6-2.4,5.4-3.6,8.2
	c-1.7,4.1-3.6,8.2-4.9,12.5c-1.3,4.2-2.8,8.3-4,12.5c-1.3,4.5-2.3,9.1-3.5,13.6c-0.7,2.9-1.3,5.7-1.5,8.6c0,0.4-0.3,0.5-0.7,0.6
	c-0.7,1.1-0.5,2.5-0.6,3.7c-0.2,2-0.5,4-0.8,5.9c-1.1,7.4-1,14.7-1,22.1c0,4.4,0.1,8.9,0.6,13.3c0.3,2.6,0.6,5.2,1.4,7.8
	c0.5,2.2,1.4,4.4,1.4,7c-2.4-1.5-4.4-3-6.2-4.8c-2.6-2.5-5.2-5-7.7-7.7c-2-2.2-3.9-4.6-5.7-7.1c-2.1-2.8-4.3-5.7-6.2-8.7
	c-1.5-2.3-2.8-4.9-4.2-7.3c-0.3-0.6-0.7-1.2-1.1-1.8C139.9,92.5,138.8,91.1,138.5,89.3z"/>
<path class="st3" d="M86.8,47c0.1,3.6,1.6,6.8,2.6,10.1c0.6,2.1,1.5,4.3,2.3,6.4c2.3,6.6,5.1,12.9,8.2,19.1c2.8,5.7,6,11.1,9.3,16.5
	c1.9,3,3.7,6.2,6.4,8.7c-0.1,1.6,1.3,2.5,2.1,3.4c3.6,4.5,7.3,8.9,11.3,13.1c4.8,5.1,9.9,10,15.5,14.4c2.6,2.1,5.2,4.2,7.8,6.3
	c1,0.7,1.9,1.5,3,2.1c0.3,0.5,0.6,0.8,1.2,0.8c-0.4,0.9-1,0.5-1.6,0.3c-4.9-0.9-9.6-2.6-14.4-4c-5.4-1.7-10.7-3.6-16.1-5.4
	c-0.4-0.1-0.9-0.2-1.3-0.3c-2.7-1.3-4.9-3.5-7.4-5.2c-4.1-2.9-7.8-6.4-11.4-9.9c-3.1-3.1-6-6.4-8.9-9.8c-4.9-5.8-9.4-11.9-13.5-18.4
	c-3.3-5.2-6.2-10.5-8.6-16.2c-1.1-2.5-2.3-5-3.1-7.6c-0.4-1.2-0.9-1.5-1.7-0.4c-1.9,2.5-3.9,5-5.9,7.6c-2.2,3-4.4,5.9-6.6,9
	c-2.1,3.1-4.1,6.2-6.1,9.3c-2.3-1.3-4-3.3-6-4.8c-2.8-2.1-1.7-4.3-0.7-6.8c0.8-2.2,1.4-4.6,2.4-6.8c2.3-4.7,4.7-9.3,7.7-13.6
	c2.3-3.3,4.6-6.5,7.1-9.5c3.9-4.6,8.1-9,12.6-12.9c2.9-2.5,5.9-5,9-7.2c0.6-0.4,1.1-0.8,1.9-0.9c0.7,3.9,1.4,7.8,2.1,11.7
	C86.1,46.8,86.2,47,86.8,47z"/>
<path class="st4" d="M170.5,124.3c-1.1-2.4-1.4-5-1.6-7.5c-0.4-6.2-1-12.3-0.8-18.5c0.2-6.6,0.5-13.1,1.3-19.6
	c0.3-2.3,0.3-4.9,1.5-7.1c-0.3,3.3-0.3,6.6-0.9,9.8c-2,9.8-0.9,19.7-1,29.6c0,3.4,0.7,6.8,1.3,10.2
	C170.4,122.1,170.2,123.2,170.5,124.3z"/>
<path class="st5" d="M138.5,89.3c0.7,1.6,2.2,2.8,2.3,4.8c-0.5-0.3-1-0.6-1.5-0.9C138.6,92,138.6,90.6,138.5,89.3z"/>
<path class="st6" d="M155.1,147.2c-1.4-0.2-2.3-1-3-2.1C153.3,145.5,154.3,146.3,155.1,147.2z"/>
<path class="st6" d="M154.8,148.4c0.5-0.1,1.1,0.2,1.6-0.3c0.6,0.1,0.8,0.5,1.2,1.1C156.5,149,155.6,148.8,154.8,148.4z"/>
<path class="st7" d="M136.5,34.9c0,0.7,0.5,1.6-0.7,2C135.9,36.2,135.3,35.3,136.5,34.9z"/>
</svg>
